# xmcd CD database file
#
# Track frame offsets:
#	187
#	8857
#	26957
#	36785
#	49157
#	60262
#	73287
#	83987
#	92197
#	103625
#	111585
#	136770
#	153650
#	172797
#
# Disc length: 2412 seconds
#
# Revision: 0
# Processed by: cddbd v1.5.1PL0 Copyright (c) Steve Scherf et al.
# Submitted via: CDex 1.51
#
DISCID=bb096a0e
DTITLE=Various Artist - Snoopy's Classiks on Toys: Jazz
DYEAR=1996
DGENRE=Jazz
TTITLE0=Intro
TTITLE1=Theme from Pink Panther
TTITLE2=Take Five
TTITLE3=Put on a Happy Face
TTITLE4=There Will Never Be Another You
TTITLE5=My Favorite Things
TTITLE6=Bluesette
TTITLE7=Little Girl
TTITLE8=Summertime
TTITLE9=Satin Doll
TTITLE10=Lullaby of Birdland
TTITLE11=Blue Rondo a la Turk
TTITLE12=Magic Kite
TTITLE13=Birdland
EXTD=YEAR: 1996
EXTT0=
EXTT1=
EXTT2=
EXTT3=
EXTT4=
EXTT5=
EXTT6=
EXTT7=
EXTT8=
EXTT9=
EXTT10=
EXTT11=
EXTT12=
EXTT13=
PLAYORDER=
